PathFileType	4	(X/Y/Z)	AB05\squats_2.trc
DataRate	CameraRate	NumFrames	NumMarkers	Units	OrigDataRate	OrigDataStartFrame	OrigNumFrames
200.000000	200.000000	4	35	mm	200.000000	84	336
Frame#	Time	C7			LSHO			STRN			LASI			RASI			LPSI			RPSI			LGTR			RGTR			LTHC			LTHL			LTHR			LKNE			LMKNE			LSHC			LSHL			LSHR			LANK			LMANK			LMT1			LMT5			LCAL			RTHC			RTHL			RTHR			RKNE			RMKNE			RSHC			RSHL			RSHR			RANK			RMANK			RMT1			RMT5			RCAL			
		X1	Y1	Z1	X2	Y2	Z2	X3	Y3	Z3	X4	Y4	Z4	X5	Y5	Z5	X6	Y6	Z6	X7	Y7	Z7	X8	Y8	Z8	X9	Y9	Z9	X10	Y10	Z10	X11	Y11	Z11	X12	Y12	Z12	X13	Y13	Z13	X14	Y14	Z14	X15	Y15	Z15	X16	Y16	Z16	X17	Y17	Z17	X18	Y18	Z18	X19	Y19	Z19	X20	Y20	Z20	X21	Y21	Z21	X22	Y22	Z22	X23	Y23	Z23	X24	Y24	Z24	X25	Y25	Z25	X26	Y26	Z26	X27	Y27	Z27	X28	Y28	Z28	X29	Y29	Z29	X30	Y30	Z30	X31	Y31	Z31	X32	Y32	Z32	X33	Y33	Z33	X34	Y34	Z34	X35	Y35	Z35	

85	1.33	-2174.417788419578	1152.783159536329	2510.193342354267	-2090.430061606668	1075.77230448811	2381.188547772775	-2117.279315582991	1000.543368963846	2512.668174259361	-2442.938396751594	738.207581600192	2367.118533252298	-2427.814568627783	724.5130992062166	2631.759027269429	-2579.424704917287	841.6748149033099	2447.291857700959	-2557.62390618838	844.2313444203024	2564.407232055084	-2511.041321577135	715.4492187912033	2290.772011247656	-2533.860911667123	712.4009229282857	2701.195362818302	-2361.306389618907	708.3251782045209	2357.567056538792	-2490.451258047282	569.9278556674885	2334.479696087622	-2412.034404267691	672.6296802071309	2290.638343158239	-2199.386299844531	492.5096719730136	2265.440850169318	-2181.823164294937	488.8850186219782	2390.119801493214	-2298.042568085732	386.2759189908575	2270.99662932983	-2236.183351633202	236.8386322596156	2310.215111090609	-2226.9618971667	322.7699292963878	2378.827164395108	-2355.766270907263	109.3336348920031	2287.407610867499	-2325.882537173697	110.4138965386413	2381.215469394354	-2199.30470063742	64.68304314513587	2350.275803121446	-2248.861429167358	54.44274165693882	2235.001140623174	-2420.100880935009	72.74985191526497	2346.909180598542	-2472.369009917189	552.4753339162697	2669.990701534363	-2401.533960719965	658.5474131176442	2719.8479326723	-2347.03441951324	693.7821598488027	2638.390545041047	-2206.689364414209	484.3995895656911	2746.925063179873	-2163.199742901979	486.8996986563501	2621.998223646914	-2235.719023704802	248.6370689912262	2706.530463446371	-2272.348101673128	400.3196159393571	2746.136697676104	-2210.424068322884	352.6609249362879	2635.530903158524	-2361.776359735917	104.3162464195413	2709.697960450264	-2324.154549811176	107.9789218392663	2620.108147949533	-2209.354171885573	63.57767411750772	2654.896411496471	-2244.803192013095	60.93368426409118	2761.427521701948	-2428.824393752291	74.26101257364196	2655.591137757687	
86	1.335	-2173.681522422154	1148.30098561301	2510.262962515782	-2089.825098210425	1071.18586623626	2381.362657000487	-2116.944541741956	995.8802121076264	2512.556408179757	-2443.812938698372	735.7064408881004	2367.242343455812	-2428.48209328503	721.6419130167675	2631.630354345378	-2580.234405214906	838.7632952164303	2447.433167118308	-2558.300586035718	841.2367045706668	2564.522906854101	-2511.857788742862	713.1373128751559	2290.676568208503	-2534.440547836025	709.736976365321	2701.325181538258	-2362.460914127204	706.7294345586689	2357.828079102882	-2490.707766794367	567.6582383401558	2334.312019041399	-2412.755008412951	670.8768465378043	2290.672564798235	-2198.9852367037	492.2110988231152	2265.480297729307	-2181.413173630703	488.5893545080961	2390.223421590828	-2297.667249092158	386.1595994604791	2271.093449770472	-2235.939635971394	236.7217630741333	2310.243178613507	-2226.542145129868	322.5715024114675	2378.88764074076	-2355.691324799375	109.3564349066268	2287.485636529782	-2325.829240491696	110.390133342546	2381.30542629201	-2199.291193941122	64.64501632422021	2350.296340098073	-2248.85484719173	54.44544992926048	2235.007546333017	-2420.062992180694	72.78128410277381	2346.971055741159	-2472.504429919001	550.1855313205153	2670.084788583712	-2402.225693670986	656.7340446579991	2719.849521360854	-2348.177060556434	692.1119724144054	2638.187826406622	-2206.356891444669	484.1003524142488	2747.045592460544	-2162.714258651593	486.6555183232635	2622.060850406305	-2235.475612058803	248.5055237412512	2706.58271689769	-2271.982160316561	400.1443831636849	2746.200132926489	-2209.909035743853	352.4422082702464	2635.609689011926	-2361.70181505867	104.3515195118302	2709.619420767233	-2324.066693826514	107.9791821376676	2620.063831795527	-2209.339036748344	63.56375174306949	2654.891685468114	-2244.799365600033	60.93272152689778	2761.432099292711	-2428.766540010559	74.30893559491642	2655.550224329427	
87	1.34	-2172.965681414246	1143.908816479975	2510.330136781334	-2089.241163028665	1066.691813931866	2381.52903928825	-2116.610880248122	991.3111293581663	2512.442504894208	-2444.659036871291	733.259356722781	2367.378202009334	-2429.13995002497	718.8428959252873	2631.510515306628	-2581.034573227499	835.8985206756331	2447.574729493316	-2558.972983652374	838.2967621725485	2564.644260840413	-2512.642396298463	710.8600463362721	2290.597111532394	-2535.012952830984	707.1013351202928	2701.451233581451	-2363.571147308827	705.1577727601868	2358.06959184543	-2490.940984693284	565.424221551378	2334.141843280782	-2413.448357698621	669.1516129315318	2290.706079201513	-2198.591314494893	491.9170808270482	2265.504323861402	-2181.002961231559	488.2959498454886	2390.308936709371	-2297.299053050283	386.043471217117	2271.176082333114	-2235.699292923227	236.6063767814778	2310.264315721019	-2226.124753363094	322.3758794519204	2378.936833101138	-2355.615308426733	109.3779399581911	2287.56099137034	-2325.770473504797	110.369889522908	2381.394128791822	-2199.277282989346	64.60876710161499	2350.31440916824	-2248.848470837641	54.44778796265478	2235.010415434516	-2420.024876967525	72.8131304350502	2347.032177545018	-2472.620128251895	547.9319058645958	2670.161189497023	-2402.895820447623	654.942109451247	2719.852813214129	-2349.285497909246	690.4640502892883	2637.995292938205	-2206.030807837813	483.8055467237901	2747.147239718361	-2162.233228553309	486.4191386988929	2622.103163466875	-2235.234680919621	248.3759953500096	2706.622432202332	-2271.621321159296	399.9731578488738	2746.250492269885	-2209.402430418241	352.2255728376045	2635.671978135318	-2361.628336975402	104.3889087110581	2709.542276634405	-2323.977520441536	107.977758194202	2620.014648279472	-2209.324279941663	63.54930095117181	2654.885629107869	-2244.795605472269	60.93237356562982	2761.436148644827	-2428.708691709181	74.35702649489075	2655.509049774622	
88	1.345	-2172.268941389747	1139.606169745609	2510.394545600398	-2088.675670450776	1062.288742019748	2381.688327269616	-2116.277685690021	986.8355693593118	2512.327511457866	-2445.478452404069	730.8683915529955	2367.525808967723	-2429.790314234802	716.1176475428548	2631.399422848269	-2581.82583826145	833.0836487696603	2447.716308808284	-2559.641568374155	835.4143007664281	2564.77071683098	-2513.396554030752	708.6207558732298	2290.533632836691	-2535.580578908044	704.4974369071393	2701.573814091466	-2364.639147447134	703.6127312235463	2358.29533911598	-2491.153173147996	563.2288806305775	2333.969470855022	-2414.11554281486	667.4569270795552	2290.740870106519	-2198.205688664444	491.6290125405611	2265.517261619291	-2180.595804462761	488.0051334897319	2390.380629691026	-2296.939193382992	385.9281998431769	2271.247525525903	-2235.463299851096	236.4927926196162	2310.280894917552	-2225.711797609926	322.1832544951064	2378.977631697657	-2355.538646291037	109.398363691682	2287.633820852874	-2325.706411060166	110.352942522427	2381.481790812221	-2199.26298673677	64.57446803352411	2350.330065804117	-2248.842280497016	54.44990264914119	2235.010168968388	-2419.986635924362	72.84529819961097	2347.092276602269	-2472.718567141626	545.7172284841371	2670.21985539821	-2403.545639166155	653.1743152519231	2719.855954800056	-2350.361888262996	688.8406957241357	2637.809615693514	-2205.712461910068	483.5161162859275	2747.22683868183	-2161.760965961866	486.1910812396471	2622.122015385656	-2234.997565348492	248.2490584480135	2706.647958434361	-2271.266797861756	399.8068638166142	2746.285080961291	-2208.907124983572	352.01176942525	2635.715475072808	-2361.556480456708	104.4282966989979	2709.466848727177	-2323.887709959531	107.9743860218518	2619.960477452897	-2209.309988192957	63.53458992775837	2654.87788566387	-2244.792016900468	60.93267309717997	2761.439400849824	-2428.651302831225	74.40484758121376	2655.467851085918	
